<svg xmlns="http://www.w3.org/2000/svg" xmlns:xlink="http://www.w3.org/1999/xlink" focusable="false" aria-hidden="true" width="300" height="300" viewBox="0 0 300 300"><path d="M150.000529,0 C67.1574974,0 0,67.1574974 0,150.000529 C0,232.842503 67.1574974,300 150.000529,300 C232.843561,300 300,232.842503 300,150.000529 C300,67.1574974 232.843561,0 150.000529,0 L150.000529,0 Z M271.893885,134.227153 L271.879068,134.227153 C270.457728,134.227153 269.30203,133.078863 269.293528,131.654349 C269.286155,130.226659 270.43762,129.062494 271.866368,129.05504 C273.294057,129.04662 274.458222,130.198084 274.466725,131.626832 C274.474097,133.05558 273.323691,134.219745 271.893885,134.227153 L271.893885,134.227153 Z M267.980128,113.549468 C267.971707,112.12072 269.124231,110.956555 270.55192,110.949112 C271.980668,110.941739 273.144833,112.092145 273.152277,113.521952 C273.159649,114.949641 272.008184,116.113806 270.580495,116.121214 L270.566737,116.121214 C269.144339,116.121214 267.987582,114.972924 267.980128,113.549468 L267.980128,113.549468 Z M226.247135,107.896088 C226.259076,110.208438 224.394112,112.093972 222.080047,112.107685 L222.059478,112.107685 C219.755698,112.107685 217.882163,110.246149 217.870089,107.940655 C217.856451,105.626591 219.721416,103.742771 222.03548,103.729 C224.349545,103.717059 226.235079,105.582023 226.247135,107.896088 L226.247135,107.896088 Z M95.2863978,172.72589 C95.2744566,170.411825 97.1394211,168.524577 99.4534856,168.514217 C101.765836,168.500579 103.653084,170.365544 103.665141,172.679608 C103.677082,174.993673 101.812117,176.879207 99.4980528,176.891206 L99.4757692,176.891206 C97.1737036,176.891206 95.2984543,175.029669 95.2863978,172.72589 L95.2863978,172.72589 Z M213.591716,205.330201 C214.241368,206.475234 212.837502,207.676834 211.803887,206.859198 L179.132725,177.773979 C175.469646,182.090137 172.994455,187.349063 171.199769,192.95767 C167.660107,204.020612 164.310713,215.143549 160.880756,226.237345 C159.183775,231.731106 157.481652,237.240293 155.729819,242.90718 L155.73839,242.929463 L154.22482,247.778714 C153.756865,249.29914 153.110641,251.138393 152.630687,252.693101 C149.917232,243.903085 147.095788,234.566263 144.5726,226.405329 C141.142643,215.308104 137.793249,204.186882 134.253587,193.12394 C132.721162,188.334683 130.693356,183.804259 127.856484,179.892633 L97.0862833,198.388008 C95.94125,199.03766 94.7379364,197.63208 95.5572867,196.600179 L116.286162,170.202702 C111.630607,167.753222 106.616801,165.841976 101.611565,164.239273 C84.3332169,158.712944 66.9245956,153.568864 48.6092038,147.99454 C66.9245956,142.420216 84.3332169,137.276136 101.611565,131.749807 C107.583565,129.838561 113.579564,127.495357 118.951621,124.310519 C121.464524,122.820947 123.624318,121.027975 125.49271,118.998455 L98.2484579,81.1866415 C97.531955,80.0810329 98.8655418,78.7988698 99.9420103,79.5547975 L132.935427,106.5745 C133.410239,105.359188 133.850768,104.121592 134.253587,102.86514 C137.793249,91.8039122 141.142643,80.6792615 144.5726,69.5837508 C147.196921,61.0919913 149.94123,52.2848333 152.766103,43.1434216 C153.244343,44.6981301 153.890567,46.5373828 154.360236,48.0578089 L155.872092,52.9070595 L155.863521,52.9293431 C157.615353,58.5962299 159.317476,64.1071316 161.014457,69.5974638 C164.444415,80.6929744 167.795523,91.815911 171.335185,102.877139 C172.562496,106.718486 174.146344,110.369566 176.175865,113.68982 L247.497046,61.7502141 C248.643793,61.1005619 249.847107,62.5061418 249.026043,63.5380431 L189.880269,125.174436 C202.857885,130.207098 256.199642,147.082627 257.985757,147.634574 C238.605896,153.486586 219.231177,159.151759 203.845219,164.073003 C199.127956,165.583144 194.402122,167.369259 189.97626,169.618187 L213.591716,205.330201 Z M120.797731,231.211727 L120.773733,231.211727 C118.471667,231.211727 116.598132,229.351904 116.586076,227.046411 C116.574134,224.73406 118.439099,222.846812 120.753163,222.834738 C123.065514,222.8211 124.951048,224.687779 124.963122,227.001843 C124.97676,229.314194 123.111795,231.199728 120.797731,231.211727 L120.797731,231.211727 Z M107.386441,238.594449 L107.362444,238.594449 C105.060378,238.594449 103.186843,236.734627 103.174769,234.430847 C103.161131,232.116783 105.026096,230.231249 107.34016,230.219193 C109.654225,230.207251 111.539759,232.072216 111.551833,234.384566 C111.56547,236.698631 109.698792,238.584165 107.386441,238.594449 L107.386441,238.594449 Z M70.8379357,193.002237 L70.8156521,193.002237 C68.5135865,193.002237 66.6400514,191.140701 66.6279774,188.835207 C66.6143395,186.522856 68.4793041,184.637322 70.7933686,184.623552 C73.107433,184.611611 74.992967,186.476575 75.0050235,188.79064 C75.0169648,191.10299 73.1537143,192.988524 70.8379357,193.002237 L70.8379357,193.002237 Z M41.1304903,164.453538 L41.1082067,164.453538 C38.8044269,164.453538 36.9326059,162.593716 36.9188353,160.288222 C36.9068941,157.974157 38.7718586,156.088623 41.0859231,156.076549 C43.3999876,156.062911 45.2838075,157.92959 45.297578,160.24194 C45.3095193,162.556005 43.4445547,164.441539 41.1304903,164.453538 L41.1304903,164.453538 Z M36.8948952,122.568971 C34.5911155,122.568971 32.7192944,120.709149 32.7072379,118.403655 C32.6952967,116.08959 34.5585472,114.204056 36.8726116,114.191982 C39.1866761,114.178344 41.0722101,116.045023 41.0842665,118.357373 C41.0962078,120.671438 39.2312433,122.556972 36.9188929,122.568971 L36.8948952,122.568971 Z M135.098649,63.3580028 C137.412714,63.3460615 139.298248,65.2110261 139.310322,67.5250905 C139.323959,69.8374409 137.458995,71.7229749 135.14493,71.7366879 L135.120933,71.7366879 C132.818867,71.7349737 130.945332,69.8751516 130.933275,67.5696577 C130.921334,65.2555932 132.786299,63.3717733 135.098649,63.3580028 L135.098649,63.3580028 Z" style="fill: #FFF; fill-rule: evenodd"></path></svg>